PathFileType	4	(X/Y/Z)	0_coords_data.trc
DataRate	CameraRate	NumFrames	NumMarkers	Units	OrigDataRate	OrigDataStartFrame	OrigNumFrames
30.0	30.0	9	21	m	30.0	1	53
Frame#	Time	THUMB_TIP	THUMB_IP	THUMB_MCP	THUMB_CMC	INDEX_TIP	INDEX_DIP	INDEX_PIP	INDEX_MCP	MIDDLE_TIP	MIDDLE_DIP	MIDDLE_PIP	MIDDLE_MCP	RING_TIP	RING_DIP	RING_PIP	RING_MCP	PINKY_TIP	PINKY_DIP	PINKY_PIP	PINKY_MCP	WRIST
X1	Y1	Z1	X2	Y2	Z2	X3	Y3	Z3	X4	Y4	Z4	X5	Y5	Z5	X6	Y6	Z6	X7	Y7	Z7	X8	Y8	Z8	X9	Y9	Z9	X10	Y10	Z10	X11	Y11	Z11	X12	Y12	Z12	X13	Y13	Z13	X14	Y14	Z14	X15	Y15	Z15	X16	Y16	Z16	X17	Y17	Z17	X18	Y18	Z18	X19	Y19	Z19	X20	Y20	Z20	X21	Y21	Z21
0	0.0	0.032818401336669925	-0.028359800338745116	0.960864990234375	0.016959299087524415	-0.024476600646972657	0.9816060180664062	0.006799009799957276	-0.0323302001953125	1.0155800170898437	-0.006505259990692139	-0.008198169708251954	1.0354000244140624	-0.009057379722595215	-0.06375019836425781	0.9031370239257812	-0.01350059986114502	-0.059271800994873045	0.9266119995117188	-0.020036500930786134	-0.0544005012512207	0.95043701171875	-0.03797589874267578	-0.0441416015625	0.98764501953125	-0.000252687007188797	-0.029329399108886718	0.981030029296875	0.0067216501235961915	-0.0321171989440918	0.9623930053710937	-0.013292200088500976	-0.0336255989074707	0.9419320068359375	-0.04357099914550781	-0.021329700469970705	0.9765059814453125	0.008145549774169921	-0.01298390007019043	0.9776519775390625	0.014856399536132813	-0.014472599983215331	0.9592150268554688	-0.0034660999774932862	-0.010963800430297852	0.938448974609375	-0.03205049896240234	0.001518470048904419	0.9723519897460937	-0.013692899703979492	0.01521720027923584	0.899968994140625	-0.013113300323486328	0.016330799102783202	0.9222680053710938	-0.014192399978637695	0.016894399642944338	0.942760009765625	-0.011706700325012207	0.017593000411987306	0.9738489990234375	-0.03723630142211914	0.011214599609375	1.05793994140625
1	0.03333333333333333	0.032450199127197266	-0.0228518009185791	0.9579089965820312	0.016672300338745116	-0.019525800704956055	0.97881298828125	0.006513810157775879	-0.028670000076293944	1.01275	-0.006476379871368408	-0.004794360160827637	1.0332099609375	-0.009968979835510254	-0.05676470184326172	0.89927099609375	-0.014333200454711915	-0.05277149963378906	0.9230360107421876	-0.020655000686645508	-0.04860210037231445	0.94697900390625	-0.038756099700927735	-0.03922000122070313	0.98485302734375	-0.000308467000722885	-0.023897100448608398	0.97860498046875	0.0064483599662780765	-0.026754199981689455	0.9598690185546875	-0.013703000068664551	-0.027910999298095703	0.9390430297851563	-0.043973899841308596	-0.01613710021972656	0.9743270263671875	0.007005459785461425	-0.007853759765625	0.9757369995117188	0.014740300178527833	-0.009013660430908203	0.9567789916992188	-0.003864140033721924	-0.00497081995010376	0.9360070190429688	-0.032469398498535154	0.0068347201347351075	0.9708519897460938	-0.012631999969482421	0.0250403995513916	0.8981510009765625	-0.011927200317382812	0.02455419921875	0.9203189697265625	-0.013011300086975097	0.02363960075378418	0.9409089965820312	-0.011405799865722656	0.022619100570678712	0.9718380126953124	-0.037563098907470706	0.014577400207519532	1.056050048828125
2	0.06666666666666667	0.031538200378417966	-0.01989590072631836	0.9563720092773438	0.016017900466918946	-0.016904699325561524	0.9774660034179687	0.006017330169677734	-0.026303800582885742	1.0113599853515625	-0.006762800216674805	-0.002364000082015991	1.03231005859375	-0.011130200386047364	-0.05309619903564453	0.897781005859375	-0.01538949966430664	-0.049404098510742185	0.9216240234375	-0.021631900787353515	-0.045488399505615236	0.9455709838867188	-0.03922460174560547	-0.03645840072631836	0.983208984375	-0.0008609039783477781	-0.021069000244140625	0.9789920043945313	0.005886799812316894	-0.023937299728393556	0.9585800170898438	-0.014464900016784668	-0.024813100814819335	0.9378920288085938	-0.04477119827270508	-0.013214799880981445	0.9731279907226562	0.0070897798538208006	-0.005148890018463134	0.9745679931640625	0.014001999855041504	-0.006196790218353271	0.9557540283203125	-0.004677889823913574	-0.0019116400480270381	0.93497900390625	-0.03303300094604492	0.009659429550170899	0.9695280151367187	-0.012711000442504884	0.030701499938964844	0.8973939819335938	-0.011982399940490723	0.029206600189208985	0.9195679931640625	-0.013112799644470215	0.02743009948730469	0.9400819702148437	-0.011985300064086914	0.02532659912109375	0.97097900390625	-0.03792919921875	0.01685919952392578	1.055010009765625
3	0.1	0.03134020042419434	-0.020488000869750975	0.9567750244140625	0.015925700187683106	-0.017273000717163086	0.9781619873046875	0.005691659927368164	-0.026535499572753907	1.0121199951171875	-0.006951399803161621	-0.002268680095672607	1.0327900390625	-0.011774200439453125	-0.05353639984130859	0.8985770263671875	-0.01604450035095215	-0.04978010177612305	0.9223809814453126	-0.022341999053955078	-0.04581890106201172	0.9462849731445313	-0.04006980133056641	-0.036448799133300784	0.9842260131835937	-0.001200610041618347	-0.021782100677490233	0.9773820190429687	0.0054958400726318355	-0.024441999435424806	0.9592930297851563	-0.014919599533081055	-0.02525659942626953	0.93872998046875	-0.04534249877929687	-0.013385899543762207	0.9741240234375	0.0073643698692321775	-0.005530539989471435	0.9751119995117188	0.013791099548339843	-0.006669229984283447	0.9564520263671875	-0.005141540050506592	-0.0025068700313568113	0.9356630249023438	-0.03348849868774414	0.009291379928588868	0.9700999755859375	-0.013427900314331056	0.030260900497436523	0.8977659912109375	-0.012454500198364258	0.028835699081420897	0.91993701171875	-0.013395600318908692	0.0270487003326416	0.9404840087890625	-0.01220069980621338	0.024952499389648438	0.97152197265625	-0.03811109924316406	0.01679560089111328	1.055300048828125
4	0.13333333333333333	0.032177101135253905	-0.022377899169921875	0.958364013671875	0.016514299392700195	-0.01919770050048828	0.9796939697265625	0.00593975019454956	-0.028063600540161132	1.0135700073242186	-0.006723350048065186	-0.003963129997253418	1.0339100341796874	-0.011111900329589844	-0.05549250030517578	0.9000889892578126	-0.015563899993896485	-0.051551998138427736	0.92377197265625	-0.021865299224853516	-0.047410701751708986	0.94772802734375	-0.040126399993896486	-0.03791379928588867	0.98527001953125	-0.0005044400095939631	-0.02346809959411621	0.9792169799804687	0.006038489818572998	-0.026369199752807618	0.9608400268554688	-0.014336099624633789	-0.02706730079650879	0.9401430053710937	-0.045181598663330075	-0.014693300247192382	0.9750419921875	0.006688829898834229	-0.007092020034790039	0.9767789916992188	0.014477899551391601	-0.008662989616394043	0.957739013671875	-0.004413390159606933	-0.004606420040130615	0.9370880126953125	-0.03297850036621094	0.007925389766693115	0.9712139892578125	-0.013139599800109864	0.02809910011291504	0.8987639770507813	-0.012030500411987305	0.02680739974975586	0.9208839721679688	-0.012834099769592286	0.02518120002746582	0.941510009765625	-0.011784199714660645	0.02338089942932129	0.9724539794921875	-0.03728509902954102	0.016066600799560547	1.056449951171875
5	0.16666666666666666	0.03369810104370117	-0.023881900787353517	0.9597830200195312	0.017768999099731446	-0.020621599197387694	0.981322998046875	0.007012609958648682	-0.029293100357055665	1.0143499755859375	-0.00614162015914917	-0.004905910015106201	1.0346099853515625	-0.009299559593200684	-0.057292598724365235	0.90135400390625	-0.013975399971008301	-0.053217601776123044	0.92493798828125	-0.02048780059814453	-0.04901699829101563	0.9487260131835937	-0.03893239974975586	-0.039326099395751955	0.9861840209960937	0.0006807990074157711	-0.02478860092163086	0.9806929931640626	0.007631440162658692	-0.027691200256347658	0.9622839965820312	-0.01294849967956543	-0.02863330078125	0.9413489990234375	-0.04399390029907226	-0.016166099548339842	0.9757249755859375	0.008484820365905761	-0.008608869552612305	0.9779769897460937	0.01565820026397705	-0.010167799949645995	0.9587139892578125	-0.00299753999710083	-0.006322979927062988	0.93822900390625	-0.03173410034179688	0.006243899822235107	0.97189599609375	-0.012289400100708009	0.026222600936889648	0.89952197265625	-0.011015399932861328	0.0250531005859375	0.9217150268554688	-0.011708900451660157	0.02348819923400879	0.9422869873046875	-0.01036750030517578	0.02186720085144043	0.973322998046875	-0.0366859016418457	0.014860600471496581	1.0571400146484375
6	0.2	0.035078800201416016	-0.0246560001373291	0.9604639892578125	0.019030000686645506	-0.021500299453735352	0.9815670166015625	0.008019169807434083	-0.029899799346923828	1.0149600219726562	-0.005363279819488525	-0.005925670146942139	1.035489990234375	-0.007461810111999511	-0.05843069839477539	0.9019429931640625	-0.012333600044250489	-0.054314800262451175	0.9254990234375	-0.01914430046081543	-0.04984339904785156	0.9493709716796875	-0.03778939819335937	-0.04022040176391602	0.986302001953125	0.002243319988250732	-0.025273399353027345	0.9812639770507813	0.009022000312805176	-0.028523000717163086	0.9627579956054687	-0.01155399990081787	-0.029546300888061525	0.9417160034179688	-0.042908599853515625	-0.017046300888061524	0.9757650146484375	0.011219200134277343	-0.009500659942626954	0.977322998046875	0.01687529945373535	-0.010926400184631348	0.9595369873046875	-0.00180852997303009	-0.0074206900596618655	0.9385579833984375	-0.030795299530029296	0.005498899936676026	0.9720380249023437	-0.01139840030670166	0.02529949951171875	0.8996010131835938	-0.01011680030822754	0.024157899856567383	0.9219019775390624	-0.010871100425720214	0.022601499557495117	0.9424400024414062	-0.009606499671936036	0.02108799934387207	0.9736699829101563	-0.03636800003051758	0.01433310031890869	1.0573699951171875
7	0.23333333333333334	0.03586629867553711	-0.024805099487304687	0.9604849853515625	0.019637899398803713	-0.021722299575805664	0.9815070190429688	0.00854928970336914	-0.030150800704956054	1.0146099853515624	-0.004579400062561035	-0.005792620182037353	1.03443994140625	-0.006573639869689942	-0.05904660034179687	0.9019119873046875	-0.011551300048828124	-0.05482379913330078	0.9254650268554687	-0.01846969985961914	-0.050391700744628905	0.9491640014648437	-0.037467201232910155	-0.040548301696777346	0.9862219848632813	0.002745500087738037	-0.02608099937438965	0.9803380126953125	0.009715439796447754	-0.029005199432373046	0.9621820068359375	-0.010918800354003905	-0.030062999725341797	0.9415999755859376	-0.042402000427246095	-0.017437400817871093	0.975468994140625	0.011572799682617187	-0.009955570220947266	0.9767919921875	0.01724220085144043	-0.011242600440979003	0.9598579711914063	-0.001215620040893554	-0.007997529983520508	0.93847900390625	-0.030166500091552733	0.005117849826812744	0.9716859741210937	-0.011051199913024902	0.024676700592041016	0.8992030029296875	-0.009697400093078613	0.023638500213623046	0.9214619750976563	-0.010376099586486817	0.0221338005065918	0.9419990234375	-0.009043669700622559	0.02067300033569336	0.9731339721679687	-0.03644440078735352	0.014176300048828125	1.0574200439453125
8	0.26666666666666666	0.036164798736572266	-0.024647300720214843	0.9601060180664063	0.019874799728393556	-0.02174909973144531	0.98089697265625	0.008580800056457519	-0.02985219955444336	1.0144099731445313	-0.0046987500190734865	-0.0060495901107788085	1.0341199951171876	-0.006414130210876465	-0.0589625015258789	0.90139697265625	-0.011402799606323242	-0.05471620178222656	0.9249110107421875	-0.018371700286865234	-0.050292598724365235	0.9486300048828125	-0.03744889831542969	-0.040506301879882814	0.9857249755859375	0.0031005299091339113	-0.02602790069580078	0.9799730224609375	0.009784870147705078	-0.028960399627685547	0.9619439697265625	-0.010879400253295899	-0.03001799964904785	0.94097998046875	-0.0422156982421875	-0.017447700500488283	0.974968017578125	0.011428400039672852	-0.009914540290832519	0.9773610229492188	0.017707700729370116	-0.011510499954223633	0.9588410034179687	-0.001046139955520629	-0.00805797004699707	0.9378709716796875	-0.030066299438476562	0.004958600044250488	0.9710599975585937	-0.011249699592590333	0.02494409942626953	0.8986749877929687	-0.009825799942016602	0.02383370018005371	0.9209390258789063	-0.010442500114440917	0.02227989959716797	0.9414550170898438	-0.008954270362854004	0.020735799789428713	0.9724520263671875	-0.03616210174560547	0.014167099952697755	1.056219970703125
